<svg display="none"  xmlns="http://www.w3.org/2000/svg" >

 <symbol id="logo" width="110" height="95" viewBox="0 0 110 95" fill="none" >
 <g clip-path="url(#clip0_39_41)">
<path d="M50.1207 21.0936L5.23066 32.7423C2.42016 33.4507 0.156139 35.8906 0.156139 38.2519L0 57.7713C0 60.0539 2.26402 62.4938 5.07452 63.2022L49.7303 74.3786C52.5408 75.087 57.0688 75.087 59.8793 74.2999L104.769 62.7299C107.58 62.0215 109.844 59.5816 109.844 57.2204L110 37.7009C110 35.4184 107.736 32.9785 104.925 32.2701L60.2697 21.0936C57.4592 20.3853 52.9312 20.3853 50.1207 21.0936Z" fill="#FF8126"/>
<path d="M54.7268 72.9619C52.9312 72.9619 51.2136 72.8045 49.9645 72.4896L8.1973 62.4151C5.23066 61.7067 2.88857 59.1881 2.88857 56.7481L3.04471 39.1964C3.04471 36.7564 5.3868 34.2378 8.43151 33.4507L50.3549 22.9826C51.682 22.6678 53.4776 22.4316 55.4294 22.4316C57.225 22.4316 58.9425 22.5891 60.1916 22.9039L101.881 32.8998C104.847 33.6081 107.19 36.1268 107.19 38.5667L107.033 56.1185C107.033 58.5584 104.691 61.0771 101.647 61.8641L59.7232 72.4109C58.396 72.7258 56.6004 72.9619 54.7268 72.9619ZM55.2732 24.0058C53.5557 24.0058 51.8382 24.1632 50.5891 24.478L8.74379 34.9461C6.47977 35.4971 4.6061 37.4648 4.52803 39.1176L4.44996 56.7481C4.44996 58.4797 6.32363 60.3687 8.58765 60.9196L50.2768 70.9155C51.4478 71.2303 53.0092 71.3877 54.7268 71.3877C56.4443 71.3877 58.1618 71.2303 59.4109 70.9155L101.334 60.4474C103.598 59.8964 105.472 57.9288 105.472 56.2759L105.628 38.7241C105.628 36.9925 103.754 35.1036 101.49 34.5526L59.7232 24.478C58.5522 24.1632 56.9908 24.0058 55.2732 24.0058Z" fill="white"/>
<path d="M43.797 46.9097C44.3435 46.831 44.8119 46.6736 45.3584 46.5162C46.5295 46.1226 47.2321 45.493 47.5444 44.7059C47.7005 44.2336 47.7786 43.8401 47.7786 43.3678C47.7786 42.2659 47.2321 41.4002 46.061 40.8492C45.1242 40.377 43.8751 40.1408 42.2356 40.1408C40.0497 40.1408 38.0979 40.5344 36.3804 41.2427C35.5216 41.6363 34.819 42.1085 34.1164 42.6595C33.1796 43.4466 32.7111 44.391 32.7111 45.2568C32.7111 46.2013 33.1796 46.831 34.1164 47.0671C34.1945 47.0671 34.4287 47.0671 34.4287 46.9097V46.7523L34.3506 46.6736C34.1945 46.5162 34.0383 46.4374 33.9603 46.3587C33.8041 46.1226 33.7261 45.8865 33.7261 45.5717C33.7261 45.0994 34.0383 44.4698 34.741 43.7614C35.4436 43.053 36.2243 42.5021 37.005 42.1085C38.5664 41.4002 40.362 41.0066 42.3137 41.0066C43.5628 41.0066 44.4997 41.164 45.2023 41.5576C45.983 41.9511 46.3733 42.5021 46.3733 43.3678C46.3733 43.6827 46.2952 44.0762 46.1391 44.4698C45.9049 45.0994 45.4365 45.5717 44.5777 45.8865C43.9532 46.1226 43.1725 46.28 42.3918 46.28C42.2356 46.28 42.0014 46.28 41.6891 46.28C41.6111 46.28 41.533 46.2013 41.4549 46.2013C41.3769 46.2013 41.2988 46.1226 41.1427 46.1226C40.6742 45.9652 40.2058 46.0439 39.9716 46.3587C39.8935 46.3587 39.8155 46.4374 39.8155 46.5949C39.8155 46.9884 40.362 47.0671 40.8304 47.1458C41.3769 47.2245 41.7672 47.3032 42.0014 47.3032C42.4698 47.4606 42.9383 47.7755 43.2505 48.169C43.5628 48.5625 43.719 48.9561 43.719 49.3496C43.719 49.7432 43.6409 50.1367 43.4067 50.5302C42.9383 51.396 42.3137 52.1044 41.3769 52.6553C40.5181 53.2063 39.5813 53.5211 38.7225 53.5211C37.3172 53.5211 36.2243 52.8128 35.5216 51.4747C36.6927 50.3728 38.0199 48.8774 39.3471 46.9884C39.5032 46.7523 40.2058 46.0439 41.2207 45.0207C42.2356 43.9975 42.9383 43.3679 43.3286 43.2104C43.9532 43.1317 44.0312 42.8169 44.0312 42.5808C44.0312 42.4234 43.9532 42.1872 43.719 42.0298C43.3286 41.7937 42.7821 41.7937 42.2356 42.0298C41.533 42.2659 40.2058 43.7614 38.0979 46.5162L36.3804 48.7987C35.912 49.507 35.4436 50.058 35.1313 50.3728L34.741 48.7987C34.5067 48.0903 34.1945 47.7755 33.7261 47.7755C33.5699 47.7755 33.4138 47.7755 33.1796 47.8542C32.7111 48.0903 32.2427 48.6413 31.6182 49.6645C31.0717 50.6877 30.7594 51.5534 30.7594 52.2618C30.7594 53.0489 30.9936 53.5211 31.462 53.7573C32.0085 54.0721 33.0234 53.5998 34.5067 52.3405C35.2874 53.5998 36.6927 54.3082 38.6444 54.3082C39.9716 54.3082 41.2988 53.9934 42.5479 53.3637C43.797 52.7341 44.6558 51.947 45.1242 51.0025C45.3584 50.6089 45.4365 50.1367 45.4365 49.5857C45.4365 48.7987 45.1242 48.0903 44.5777 47.5394C44.3435 47.2245 44.0312 46.9884 43.797 46.9097ZM31.8524 52.1044C31.8524 51.3173 32.3208 50.2941 33.1796 49.0348C33.2576 49.1135 33.5699 49.4283 34.1945 51.396C32.8673 52.7341 32.3208 52.9702 32.0866 52.9702C31.9304 52.7341 31.8524 52.4192 31.8524 52.1044Z" fill="white"/>
<path d="M80.8801 47.3819C80.5678 47.3819 80.2555 47.5394 79.9432 47.8542C79.709 48.169 79.4748 48.4051 79.3967 48.5625C78.7722 49.1922 77.8353 49.9793 76.6643 50.9238C74.6345 52.4979 74.2441 52.3405 74.2441 52.2618C74.2441 52.0257 74.4784 51.4747 75.8836 49.9793C77.6011 48.0903 77.6011 48.0116 77.6011 47.8542C77.6011 47.6181 77.5231 47.2245 76.7424 47.2245C76.4301 47.2245 75.8836 47.4606 74.5564 49.1922C74.4003 49.4283 74.2442 49.6645 74.088 49.9006C74.0099 49.9793 73.8538 50.2154 73.6196 50.4515C73.2292 50.9238 72.7608 51.3173 72.2924 51.6321C71.5117 52.2618 70.8091 52.4979 70.2626 52.4979C69.7942 52.4979 69.638 52.2618 69.638 51.7896C69.638 51.2386 70.0284 50.4515 70.8091 49.4283L72.1363 47.7755V47.6968C72.2143 47.5394 72.2143 47.3819 71.9801 47.1458C71.824 46.9884 71.6679 46.9097 71.5117 46.9097C71.3556 46.9097 71.2775 46.9097 71.1994 46.9884L70.731 47.3032C70.4968 47.4606 70.2626 47.5394 70.1065 47.5394C69.7942 47.5394 69.7161 47.4606 69.7161 47.3819L70.1065 46.831C70.4187 46.3587 70.653 46.0439 70.653 45.7291C70.653 45.3355 70.4187 45.1781 70.0284 45.1781C69.4819 45.1781 69.0916 45.8078 68.7793 46.9097C68.3109 47.7755 67.6082 48.7987 66.5153 50.058C66.0468 50.5302 65.5784 51.0025 65.0319 51.4747C64.0951 52.2618 63.3144 52.734 62.7679 52.734C62.2214 52.734 62.0653 52.4979 62.0653 51.947C62.0653 51.6321 62.1434 51.396 62.2214 51.0812C62.2995 51.0812 62.2995 51.0812 62.3776 51.0812C63.0802 51.0812 63.939 50.7664 65.11 50.058C66.203 49.3496 66.8275 48.6413 66.8275 47.8542C66.8275 47.5394 66.7495 47.3032 66.5153 47.1458C66.2811 46.9884 66.0468 46.831 65.6565 46.831C64.7197 46.831 63.7048 47.4606 62.5337 48.6413C61.753 49.4283 61.2846 50.2154 61.0504 50.8451C60.66 51.2386 60.2697 51.5534 59.9574 51.7896C59.3329 52.2618 58.7864 52.4979 58.396 52.4979C57.6934 52.4979 57.1469 51.7896 56.8346 50.2941C57.1469 50.4515 57.5373 50.5302 58.1618 50.5302C58.7864 50.5302 59.5671 50.2941 60.2697 49.9006C61.2065 49.4283 61.753 48.72 61.9092 47.9329V47.8542C61.9092 47.5394 61.753 47.2245 61.4407 46.9097C61.1285 46.5162 60.7381 46.3587 60.2697 46.3587C59.7232 46.3587 59.0206 46.5162 58.0838 46.9097C58.318 46.5949 58.6302 46.2013 59.0987 45.6504C60.4258 43.9975 60.4258 43.9188 60.4258 43.8401C60.4258 43.604 60.2697 43.3679 59.6451 43.3679C59.4109 43.3679 59.3329 43.3679 59.2548 43.4466C58.6302 43.9188 57.5373 45.3355 55.8978 47.8542C55.5855 48.4051 55.2733 48.7987 55.039 49.2709C52.9312 51.8683 52.0724 52.4192 51.604 52.4192C51.5259 52.4192 51.4478 52.4192 51.3698 52.1044C51.3698 52.1044 51.3698 52.1044 51.3698 52.0257C51.3698 51.7108 51.604 51.0812 52.5408 49.7432C53.7119 47.9329 53.7119 47.8542 53.7119 47.7755C53.7119 47.6181 53.6338 47.5394 53.4777 47.3819C53.3215 47.2245 53.1654 47.1458 52.9312 47.1458H52.8531L52.775 46.9097C52.3066 46.5949 51.9163 46.4374 51.4478 46.4374C50.3549 46.4374 49.1058 47.1458 47.7786 48.4051C46.4514 49.7432 45.8268 50.8451 45.8268 51.8683C45.8268 52.3405 46.061 52.734 46.4514 53.0489C46.7637 53.285 47.154 53.4424 47.5444 53.4424C47.9347 53.4424 48.4812 53.1276 49.2619 52.4192L50.0426 51.6321V51.7108C50.0426 52.4192 50.3549 52.8915 50.9794 53.1276C51.604 53.3637 52.3847 53.0489 53.3215 52.1044C53.2434 52.2618 53.2434 52.3405 53.2434 52.4192C53.2434 52.8128 53.4776 53.1276 54.0241 53.3637L54.1803 53.4424L54.2583 53.285C54.7268 52.4192 55.039 51.7109 55.2733 51.396C55.9759 52.8128 56.8346 53.5211 57.8495 53.5211C58.5522 53.5211 59.3329 53.1276 60.3478 52.4192C60.4258 52.3405 60.582 52.2618 60.66 52.1831C60.7381 52.8128 61.1285 53.285 61.9872 53.5211C62.1434 53.5998 62.2995 53.5998 62.4556 53.5998C63.1583 53.5998 64.017 53.2063 65.0319 52.4979C65.9688 51.8683 66.7495 51.0812 67.374 50.2154C67.5302 50.058 67.6863 49.8219 67.8424 49.5857L69.0916 48.0116C69.2477 48.2477 69.4819 48.4051 69.7161 48.4838C69.4819 48.8774 69.2477 49.2709 69.0135 49.8219C68.7012 50.4515 68.5451 51.0812 68.5451 51.6321C68.5451 53.1276 69.4038 53.4424 70.1845 53.4424C70.8872 53.4424 71.7459 53.0489 72.7608 52.2618C72.917 52.1831 73.0731 52.0257 73.1512 51.947C73.1512 52.0257 73.1512 52.0257 73.1512 52.1044C73.1512 52.4192 73.2292 52.6553 73.4635 52.8915C74.0099 53.5211 75.0248 53.285 76.4301 52.1831L78.616 50.4515L78.1476 51.4747C77.6011 52.734 76.9766 53.836 76.4301 54.623C75.6494 55.7249 74.9468 56.2759 74.2441 56.2759C73.8538 56.2759 73.3854 55.8823 72.8389 55.174L72.5266 54.7804V55.3314C72.5266 55.8036 72.6828 56.2759 72.995 56.6694C73.3073 57.063 73.7757 57.2991 74.1661 57.2991C75.4152 57.2991 76.7424 56.2759 77.9915 54.2295C78.8503 52.734 79.3967 51.6321 79.7871 50.9238C79.7871 50.8451 79.9432 50.6089 80.6459 49.5857C81.5046 48.2477 81.5046 48.169 81.5046 48.0903C81.5046 47.6181 81.2704 47.3819 80.8801 47.3819ZM57.6153 48.0903C58.5522 47.5394 59.3329 47.2245 59.9574 47.2245C60.0355 47.2245 60.1136 47.2245 60.1916 47.3032C60.2697 47.3819 60.2697 47.3819 60.2697 47.4606C60.2697 48.0116 59.8013 48.4838 58.7864 48.9561C57.9276 49.4283 57.1469 49.6645 56.6785 49.6645C56.3662 49.6645 56.2101 49.6645 56.0539 49.5857C56.2882 49.1135 56.8346 48.5625 57.6153 48.0903ZM64.2513 49.5857C63.5486 50.058 62.9241 50.2941 62.5337 50.2941C62.9241 49.6645 63.4706 49.1135 64.1732 48.5625C64.8758 48.0116 65.2662 47.8542 65.4223 47.8542C65.6565 47.8542 65.7346 47.8542 65.7346 47.8542V47.9329C65.5004 48.5626 65.0319 49.1135 64.2513 49.5857ZM46.9979 52.1044C46.9979 51.396 47.6224 50.4515 48.8715 49.2709C50.1207 48.0903 51.0575 47.5394 51.7601 47.5394C51.9163 47.5394 51.9943 47.5394 51.9943 47.6181L50.1207 50.2941C48.6373 52.2618 47.7786 52.6553 47.3102 52.6553C47.154 52.5766 46.9979 52.5766 46.9979 52.1044Z" fill="white"/>
<path d="M28.3392 16.0563C28.3392 15.9776 28.2612 15.9776 28.1831 15.9776C28.105 15.9776 28.105 15.9776 28.027 15.9776L27.4024 16.3712L26.2314 14.4822L26.3875 14.4035C26.8559 14.0886 27.1682 13.7738 27.5585 13.459C27.8708 13.1442 28.105 12.7506 28.2612 12.3571C28.4173 11.9635 28.4954 11.4913 28.4173 11.0978C28.3392 10.6255 28.1831 10.1533 27.8708 9.68103C27.6366 9.28749 27.3243 8.97266 27.0121 8.73654C26.6998 8.50041 26.3094 8.343 25.9191 8.26429C25.5287 8.18558 25.1384 8.18558 24.748 8.26429C24.3577 8.343 23.9674 8.50041 23.577 8.73654C23.1086 9.05137 22.7182 9.28749 22.3279 9.60232C21.9375 9.91715 21.4691 10.1533 21.0788 10.4681C21.0007 10.4681 21.0007 10.5468 21.0007 10.6255C21.0007 10.7042 21.0007 10.7042 21.0007 10.7829L21.7814 11.8848C21.8595 11.9635 21.9375 11.9635 22.0156 11.9635L22.484 11.6487L26.1533 17.3944L25.6068 17.7092C25.5287 17.7092 25.5287 17.7879 25.5287 17.8666C25.5287 17.9453 25.5287 17.9453 25.5287 18.024L26.2314 19.0472C26.2314 19.1259 26.3094 19.1259 26.3875 19.1259H26.4656L28.8077 17.5518C28.8857 17.4731 28.8857 17.3944 28.8857 17.3157L28.3392 16.0563ZM23.8112 10.5468L24.5138 10.0746C24.67 9.99586 24.9042 9.91715 25.0603 9.83844C25.2165 9.83844 25.4507 9.83844 25.6068 9.83844C25.763 9.83844 25.9191 9.91715 26.0752 10.0746C26.2314 10.1533 26.3875 10.3107 26.4656 10.4681C26.6998 10.7829 26.7779 11.0191 26.7779 11.2552C26.7779 11.4913 26.7779 11.7274 26.6217 11.8848C26.5436 12.121 26.3875 12.2784 26.1533 12.4358C25.9191 12.5932 25.6849 12.8293 25.4507 12.9867L25.3726 13.0655L23.8112 10.5468Z" fill="#605656"/>
<path d="M39.0348 10.6255C38.9567 10.6255 38.9567 10.6255 38.8786 10.6255L38.0979 10.9403L36.2243 8.65783C36.4585 8.50041 36.6146 8.26429 36.6927 8.10688C36.8488 7.87075 36.9269 7.55592 37.005 7.24109C37.083 6.92626 37.083 6.61143 37.083 6.2966C37.083 5.98177 37.005 5.66694 36.8488 5.35211C36.6927 4.87987 36.4585 4.56504 36.1462 4.25021C35.8339 4.01408 35.5216 3.77796 35.2094 3.69925C34.819 3.62055 34.5067 3.54184 34.0383 3.54184C33.648 3.54184 33.2576 3.69925 32.8673 3.85667C32.3989 4.01408 31.9305 4.25021 31.462 4.40762C30.9936 4.64375 30.5252 4.80116 30.0568 5.03728C29.9787 5.03728 29.9787 5.11599 29.9787 5.11599C29.9787 5.1947 29.9787 5.1947 29.9787 5.27341L30.5252 6.45402C30.6033 6.53273 30.6813 6.61143 30.7594 6.53273L31.3059 6.2966L33.8822 12.7506L33.3357 12.9867C33.2576 12.9867 33.2576 13.0655 33.2576 13.0655C33.2576 13.1442 33.2576 13.1442 33.2576 13.2229L33.8041 14.3248C33.8041 14.4035 33.8822 14.4035 33.9603 14.4035H34.0383L36.4585 13.459C36.5366 13.459 36.6146 13.3016 36.5366 13.2229L36.1462 11.9635C36.1462 11.8848 36.0681 11.8848 36.0681 11.8848C35.9901 11.8848 35.9901 11.8848 35.912 11.8848L35.3655 12.121L34.3506 9.68103L34.8971 9.44491L36.6927 11.8061L36.4585 11.8848C36.3804 11.8848 36.3804 11.9635 36.3804 11.9635C36.3804 12.0423 36.3804 12.0423 36.3804 12.121L37.005 13.2229C37.083 13.3016 37.1611 13.3803 37.2392 13.3016L39.4251 12.1997C39.5032 12.121 39.5813 12.0423 39.5032 11.9635L39.1128 10.7042C39.1128 10.7042 39.0348 10.6255 39.0348 10.6255ZM33.8822 8.18558L33.7261 8.26429L32.7892 5.74565L33.648 5.43082C33.8041 5.35211 34.0383 5.27341 34.1945 5.27341C34.3506 5.27341 34.5067 5.27341 34.6629 5.35211C34.819 5.43082 34.9752 5.50953 35.0532 5.58824C35.2094 5.66694 35.2874 5.82436 35.3655 6.06048C35.5216 6.37531 35.5216 6.61143 35.5216 6.84756C35.4436 7.08368 35.3655 7.24109 35.2874 7.39851C35.1313 7.55592 34.9752 7.71334 34.741 7.79205C34.4287 7.94946 34.1164 8.10688 33.8822 8.18558Z" fill="#605656"/>
<path d="M46.9979 7.3198L46.061 7.55592C45.983 7.55592 45.983 7.63463 45.9049 7.63463C45.9049 7.71334 45.9049 7.71334 45.9049 7.79205L46.1391 9.13007L44.0312 9.60232L43.5628 7.00497L45.4365 6.53273C45.5146 6.53273 45.5926 6.37531 45.5926 6.2966L45.4365 5.35211C45.2803 5.1947 45.2803 5.1947 45.2803 5.11599C45.2023 5.11599 45.2023 5.11599 45.1242 5.11599L43.2505 5.50953L42.7821 2.91218L44.8119 2.36123L45.2023 3.54184C45.2023 3.62055 45.3584 3.69925 45.4365 3.69925L46.4514 3.46313C46.5295 3.46313 46.6075 3.30572 46.6075 3.22701L45.983 0.629659C45.983 0.550952 45.8268 0.472244 45.7488 0.472244L40.2839 1.65286C40.2058 1.65286 40.1278 1.81027 40.1278 1.88898L40.2839 3.1483C40.2839 3.22701 40.2839 3.22701 40.362 3.30572C40.44 3.30572 40.44 3.38442 40.5181 3.30572L41.1427 3.1483L42.4698 9.83844L41.8453 9.99586C41.7672 9.99586 41.7672 10.0746 41.6891 10.0746C41.6891 10.1533 41.6891 10.1533 41.6891 10.232L42.0014 11.4913C42.0014 11.57 42.0795 11.6487 42.1576 11.6487C42.1576 11.6487 42.1576 11.6487 42.2356 11.6487L47.7005 10.3894C47.7786 10.3894 47.7786 10.3107 47.8566 10.3107C47.8566 10.232 47.8566 10.232 47.8566 10.1533L47.2321 7.47722C47.2321 7.39851 47.154 7.3198 46.9979 7.3198Z" fill="#605656"/>
<path d="M59.5671 0H56.6004C56.5224 0 56.4443 0.0787075 56.4443 0.157415L54.8829 6.13919L54.0241 0.236123C54.0241 0.157415 53.9461 0.0787075 53.868 0.0787075L50.4329 0C50.3549 0 50.2768 0.0787075 50.1987 0.157415L50.1207 1.41674C50.1207 1.49544 50.1987 1.57415 50.2768 1.65286L51.2917 1.73157L51.1356 8.343H50.1987C50.1207 8.343 50.1207 8.343 50.0426 8.42171C50.0426 8.42171 49.9645 8.50041 49.9645 8.57912V9.83844C49.9645 9.91715 50.0426 9.99586 50.1207 10.0746L53.3215 10.232C53.3996 10.232 53.3996 10.232 53.4776 10.1533C53.5557 10.0746 53.5557 10.0746 53.5557 9.99586V8.73654C53.5557 8.65783 53.4776 8.57912 53.3996 8.57912H52.775L52.9312 4.32891L53.7899 9.60232C53.7899 9.68103 53.868 9.75973 53.9461 9.75973H55.2732C55.3513 9.75973 55.4294 9.68103 55.4294 9.60232L56.9908 3.85667L56.9127 8.50041H56.2881C56.2101 8.50041 56.132 8.57912 56.0539 8.65783L55.9759 9.99586C55.9759 10.0746 55.9759 10.0746 56.0539 10.1533C56.0539 10.1533 56.132 10.232 56.2101 10.232L59.0206 10.3107C59.0987 10.3107 59.0987 10.3107 59.1767 10.232C59.1767 10.232 59.2548 10.1533 59.2548 10.0746V8.73654C59.2548 8.65783 59.1767 8.57912 59.0987 8.57912H58.6302L58.8644 1.73157L59.5671 1.81027C59.6451 1.81027 59.6451 1.81027 59.7232 1.73157C59.8013 1.73157 59.8013 1.65286 59.8013 1.57415L59.8793 0.236123C59.8793 0.157415 59.8793 0.157415 59.8013 0.0787075C59.6451 0 59.5671 0 59.5671 0Z" fill="#605656"/>
<path d="M66.7495 1.49544L64.0951 0.944489C64.017 0.944489 63.8609 1.0232 63.8609 1.1019L63.5486 2.36122C63.5486 2.43993 63.5486 2.43993 63.5486 2.51864C63.5486 2.59735 63.6267 2.59735 63.7048 2.59735L64.3293 2.67605L63.0021 9.20878L62.3776 9.05137C62.2995 9.05137 62.2995 9.05137 62.2214 9.05137C62.1434 9.05137 62.1434 9.13007 62.1434 9.20878L61.9092 10.4681C61.9092 10.5468 61.9872 10.7042 62.0653 10.7042L64.7977 11.2552C64.8758 11.2552 64.9539 11.1765 64.9539 11.0978L65.2661 9.91715C65.2661 9.83844 65.2661 9.83844 65.2661 9.75973C65.2661 9.68103 65.1881 9.68103 65.11 9.68103L64.3293 9.52361L65.7346 2.99088L66.5153 3.1483C66.5933 3.1483 66.5933 3.1483 66.6714 3.06959C66.7495 3.06959 66.7495 2.99088 66.7495 2.91218L66.9056 1.65286C66.9056 1.57415 66.8275 1.49544 66.7495 1.49544Z" fill="#605656"/>
<path d="M77.2108 6.45402C77.2889 6.45402 77.445 6.45402 77.445 6.29661L77.8353 5.11599C77.8353 5.03729 77.8353 4.87987 77.7573 4.87987L75.181 3.93538C75.1029 3.93538 74.9468 3.93538 74.9468 4.01409L74.4003 5.27341C74.4003 5.35212 74.4003 5.35212 74.4003 5.43082C74.4003 5.50953 74.4784 5.50953 74.4784 5.50953L75.1029 5.74565L73.8538 8.97266C73.7757 9.13008 73.6977 9.3662 73.6196 9.60232C73.5415 9.83845 73.3854 10.0746 73.3073 10.3894C73.1512 10.6255 73.0731 10.8616 72.917 11.0978C72.7608 11.3339 72.6047 11.4913 72.4486 11.6487C72.2924 11.8061 72.1363 11.8848 71.9021 11.9635C71.7459 12.0423 71.5117 11.9635 71.2775 11.8848C71.1214 11.8061 70.9652 11.7274 70.8872 11.57C70.8091 11.4126 70.731 11.2552 70.731 11.0978C70.731 10.9404 70.731 10.7042 70.731 10.4681C70.731 10.232 70.8091 9.99586 70.8872 9.83845C70.9652 9.60232 71.0433 9.44491 71.0433 9.20879C71.1214 8.97266 71.1994 8.81525 71.2775 8.65783C71.5117 7.94946 71.824 7.3198 72.0582 6.69014C72.2924 6.06048 72.6047 5.50953 72.8389 4.87987L73.4635 5.03729C73.5415 5.03729 73.5415 5.03729 73.6196 5.03729C73.6977 5.03729 73.6977 4.95858 73.6977 4.95858L74.0099 3.77796C74.0099 3.69926 74.0099 3.54184 73.8538 3.54184L71.3556 2.59735C71.2775 2.59735 71.1214 2.59735 71.1214 2.67606L70.4187 3.93538C70.4187 4.01409 70.4187 4.01409 70.4187 4.09279C70.4187 4.1715 70.4968 4.1715 70.4968 4.1715L71.1214 4.40762C70.8872 4.95858 70.653 5.50953 70.4187 6.06048C70.1845 6.69014 69.8723 7.3198 69.638 7.94946C69.56 8.18559 69.4038 8.50042 69.3258 8.89396C69.2477 9.20879 69.1696 9.60232 69.0916 9.91715C69.0135 10.3107 69.0135 10.6255 69.0135 10.9404C69.0135 11.3339 69.0916 11.6487 69.1696 11.9635C69.2477 12.2784 69.4038 12.5932 69.638 12.8293C69.8723 13.0655 70.1845 13.3016 70.5749 13.459C70.9652 13.6164 71.2775 13.6951 71.5898 13.6951C71.6679 13.6951 71.7459 13.6951 71.824 13.6951C72.2143 13.6164 72.5266 13.5377 72.917 13.3803C73.2292 13.2229 73.5415 12.9867 73.7757 12.6719C74.0099 12.3571 74.2442 12.0423 74.4784 11.7274C74.7126 11.4126 74.8687 11.0191 75.0248 10.6255C75.181 10.232 75.3371 9.91715 75.4933 9.60232L76.6643 6.29661L77.2108 6.45402Z" fill="#605656"/>
<path d="M89.4677 12.2784L86.9695 10.6255C86.8914 10.5468 86.8133 10.5468 86.7353 10.6255L82.2072 14.797L84.6274 9.3662C84.7055 9.28749 84.6274 9.20879 84.5493 9.13008L81.8169 7.2411C81.7388 7.16239 81.5827 7.2411 81.5827 7.31981L80.8801 8.343C80.802 8.42171 80.802 8.57913 80.9581 8.57913L81.7388 9.20879L77.9915 14.6396L77.2889 14.1674C77.2108 14.1674 77.2108 14.0887 77.1327 14.1674C77.0547 14.1674 77.0547 14.2461 76.9766 14.2461L76.274 15.2693C76.1959 15.348 76.274 15.5054 76.352 15.5054L78.9283 17.3157C79.0064 17.3157 79.0064 17.3944 79.0845 17.3157C79.1625 17.3157 79.1625 17.237 79.2406 17.237L79.9432 16.1351C80.0213 16.0563 79.9432 15.8989 79.8652 15.8989L79.3967 15.5841L81.8169 12.0423L79.709 16.9221C79.709 17.0008 79.709 17.0795 79.7871 17.1582L80.9581 17.8666C81.0362 17.9453 81.1143 17.8666 81.1923 17.8666L85.33 14.0887L82.6757 17.9453L82.1292 17.5518C82.0511 17.4731 81.895 17.5518 81.895 17.6305L81.1143 18.7324C81.1143 18.8111 81.0362 18.8111 81.1143 18.8898C81.1143 18.9685 81.1923 18.9685 81.1923 19.0472L83.5344 20.6214H83.6125C83.6906 20.6214 83.6906 20.5427 83.7686 20.5427L84.4713 19.4408C84.5493 19.3621 84.4713 19.2046 84.3932 19.2046L84.0028 18.8898L87.9063 13.2229L88.4528 13.6164C88.5309 13.6164 88.5309 13.6951 88.6089 13.6164C88.687 13.6164 88.687 13.6164 88.7651 13.5377L89.5458 12.4358C89.5458 12.3571 89.6238 12.3571 89.5458 12.2784C89.5458 12.3571 89.4677 12.3571 89.4677 12.2784Z" fill="#605656"/>
<path d="M34.6629 76.976C34.2725 76.6612 33.8822 76.425 33.4138 76.3463C33.0234 76.2676 32.6331 76.2676 32.2427 76.3463C31.8524 76.425 31.462 76.5824 31.1498 76.8186C30.7594 77.0547 30.4471 77.2908 30.1348 77.6056C29.8226 77.9205 29.5103 78.1566 29.198 78.5501C28.8857 78.865 28.6515 79.1798 28.4173 79.4946C28.2612 79.7307 28.027 80.0456 27.8708 80.2817C27.7147 80.5965 27.4805 80.9114 27.3243 81.2262C27.1682 81.541 27.0121 81.9346 26.934 82.2494C26.8559 82.6429 26.7779 82.9578 26.7779 83.2726C26.7779 83.5874 26.8559 83.9809 27.0121 84.2958C27.1682 84.6106 27.4024 84.9254 27.7147 85.1616C27.7928 85.2403 27.9489 85.319 28.027 85.3977C28.105 85.4764 28.1831 85.4764 28.2612 85.5551C28.2612 85.8699 28.1831 86.1061 28.1831 86.4209C28.1831 86.7357 28.1831 87.1292 28.2612 87.4441C28.2612 87.5228 28.3392 87.6015 28.4173 87.6015L29.8226 87.3654C29.9006 87.3654 29.9006 87.2867 29.9787 87.2867C29.9787 87.208 29.9787 87.208 29.9787 87.1292C29.9006 86.9718 29.8226 86.7357 29.8226 86.4996C29.8226 86.3422 29.7445 86.106 29.7445 85.9486C29.9787 85.9486 30.2129 85.8699 30.3691 85.7912C30.6813 85.7125 30.9155 85.5551 31.1498 85.3977C31.384 85.2403 31.6182 85.0829 31.9304 84.8467C32.1647 84.6106 32.3989 84.4532 32.6331 84.2171C32.8673 83.9809 33.0234 83.7448 33.2576 83.5087C33.4138 83.2726 33.648 83.0365 33.8041 82.879C33.9603 82.6429 34.1945 82.3281 34.3506 82.092C34.5848 81.7771 34.741 81.4623 34.8971 81.1475C35.0532 80.8326 35.2094 80.4391 35.2874 80.1243C35.3655 79.7307 35.4436 79.4159 35.4436 79.0224C35.4436 78.6288 35.3655 78.314 35.2094 77.9992C35.2094 77.5269 34.9752 77.2121 34.6629 76.976ZM28.6515 83.5874C28.6515 83.5874 28.6515 83.5087 28.6515 83.5874C28.5735 83.3513 28.4954 83.2726 28.4954 83.1152C28.4954 82.9577 28.4954 82.879 28.4954 82.7216C28.4954 82.879 28.5735 82.9577 28.5735 83.1152C28.6515 83.2726 28.6515 83.43 28.6515 83.5874ZM30.1348 82.4855C30.0568 82.1707 29.9787 81.9346 29.8226 81.6197C29.6664 81.3836 29.5884 81.1475 29.3542 80.9901C29.3542 80.9114 29.4322 80.9114 29.4322 80.8326L29.6664 80.5965C29.8226 80.4391 29.9787 80.203 30.1348 79.9669C30.291 79.7307 30.5252 79.4946 30.7594 79.2585C30.9936 79.0224 31.2278 78.7863 31.462 78.6288C31.6962 78.3927 31.9304 78.2353 32.1647 78.1566C32.6331 77.9205 33.0234 77.9205 33.4918 78.2353C33.648 78.3927 33.726 78.4714 33.8041 78.7075C33.8822 78.865 33.8822 79.1011 33.8041 79.3372C33.726 79.5733 33.726 79.8094 33.5699 80.0456C33.4918 80.2817 33.3357 80.5178 33.1796 80.7539C33.0234 80.9901 32.8673 81.2262 32.7892 81.3836C32.6331 81.6197 32.555 81.7771 32.3989 81.8558C32.2427 82.0133 32.0866 82.2494 31.8524 82.4855C31.6182 82.7216 31.462 82.9577 31.2278 83.1939C30.9936 83.43 30.7594 83.5874 30.5252 83.7448C30.3691 83.8235 30.291 83.9022 30.1348 83.9809C30.2129 83.7448 30.2129 83.5874 30.2129 83.43C30.2129 83.1152 30.2129 82.8003 30.1348 82.4855Z" fill="#605656"/>
<path d="M45.0461 82.8003L42.5479 81.6984C42.4698 81.6197 42.3137 81.6984 42.3137 81.7771L41.6891 82.9577C41.6891 83.0365 41.6891 83.0365 41.6891 83.1152C41.6891 83.1939 41.7672 83.1939 41.7672 83.1939L42.3918 83.43L40.9865 86.5783C40.9084 86.7357 40.8304 86.9718 40.6742 87.208C40.5962 87.4441 40.44 87.6802 40.2839 87.9163C40.1278 88.1524 39.9716 88.3886 39.8155 88.6247C39.6593 88.8608 39.5032 89.0182 39.269 89.1756C39.1128 89.3331 38.8786 89.4118 38.7225 89.4118C38.5664 89.4905 38.3322 89.4118 38.0979 89.3331C37.9418 89.2543 37.7857 89.1756 37.7076 89.0182C37.6295 88.8608 37.5515 88.7034 37.5515 88.546C37.5515 88.3886 37.5515 88.1524 37.5515 87.9163C37.5515 87.6802 37.6295 87.4441 37.7076 87.2867C37.7857 87.0505 37.8637 86.8931 37.9418 86.657C38.0199 86.4209 38.0979 86.2635 38.176 86.106C38.4883 85.4764 38.8006 84.8467 39.1128 84.2171C39.4251 83.6661 39.6593 83.0365 39.9716 82.4855L40.5962 82.7216C40.6742 82.7216 40.6742 82.7216 40.7523 82.7216C40.8304 82.7216 40.8304 82.6429 40.8304 82.6429L41.2207 81.4623C41.2207 81.3836 41.2207 81.2262 41.1427 81.2262L38.6444 80.1243C38.5664 80.0456 38.4102 80.1243 38.4102 80.203L37.7857 81.3836C37.7857 81.4623 37.7857 81.4623 37.7857 81.541C37.7857 81.6197 37.8637 81.6197 37.8637 81.6197L38.4883 81.8558C38.2541 82.4068 37.9418 82.9577 37.7076 83.5087C37.3953 84.1384 37.083 84.768 36.8488 85.3977C36.6927 85.6338 36.6146 85.9486 36.4585 86.2635C36.3023 86.5783 36.2243 86.9718 36.1462 87.2867C36.0681 87.6802 35.9901 87.995 35.9901 88.3099C35.9901 88.7034 35.9901 89.0182 36.0681 89.3331C36.1462 89.6479 36.3023 89.9627 36.5366 90.1988C36.7708 90.435 37.083 90.6711 37.3953 90.8285C37.7857 90.9859 38.176 91.0646 38.4883 91.0646H38.5664C38.9567 91.0646 39.3471 90.9072 39.6593 90.7498C39.9716 90.5924 40.2839 90.3562 40.5962 90.0414C40.8304 89.7266 41.1427 89.4118 41.2988 89.0969C41.533 88.7821 41.6891 88.3886 41.9234 88.0737C42.0795 87.6802 42.2356 87.3654 42.3918 87.0505L43.797 83.8235L44.3435 84.0597C44.4216 84.0597 44.5777 84.0596 44.5777 83.9022L44.9681 82.7216C45.1242 82.9577 45.1242 82.8003 45.0461 82.8003Z" fill="#605656"/>
<path d="M51.7601 93.2684L51.0575 93.111L50.9013 85.7125L51.3698 85.7912C51.4478 85.7912 51.5259 85.7125 51.604 85.6338L51.8382 84.5319C51.8382 84.4532 51.8382 84.4532 51.8382 84.3745C51.8382 84.2958 51.7601 84.2958 51.682 84.2958L48.247 83.7448C48.1689 83.7448 48.1689 83.7448 48.0908 83.7448C48.0128 83.7448 48.0128 83.8235 48.0128 83.9022L47.8566 85.0829C47.8566 85.1616 47.9347 85.319 48.0128 85.319L48.4812 85.3977L45.8268 92.0091L45.1242 91.8517C45.0461 91.8517 45.0461 91.8517 44.9681 91.8517C44.89 91.8517 44.89 91.9304 44.89 92.0091L44.7338 93.3471C44.7338 93.4259 44.8119 93.5833 44.89 93.5833L47.6224 94.1342C47.7005 94.1342 47.8566 94.0555 47.8566 93.9768L48.1689 92.7962C48.1689 92.7175 48.1689 92.7175 48.1689 92.6388C48.1689 92.5601 48.0908 92.5601 48.0128 92.5601L47.4663 92.4027L47.9347 91.0646L49.418 91.3008V92.9536L48.7935 92.7962C48.7154 92.7962 48.7154 92.7962 48.6373 92.7962C48.5593 92.7962 48.5593 92.8749 48.5593 92.9536L48.4031 94.2916C48.4031 94.3704 48.4812 94.5278 48.5593 94.5278L51.2917 95.0787C51.2917 95.0787 51.2917 95.0787 51.3698 95.0787C51.4478 95.0787 51.5259 95 51.5259 94.9213L51.8382 93.662C51.9163 93.4259 51.9163 93.3472 51.7601 93.2684ZM49.5742 86.7357V89.6479L48.6373 89.4905L49.5742 86.7357Z" fill="#605656"/>
<path d="M61.1285 91.6156H59.9574C59.8793 91.6156 59.8793 91.6156 59.8013 91.6943C59.8013 91.6943 59.7232 91.773 59.7232 91.8517V93.1897H57.8495L57.6934 86.4996L58.4741 86.4209C58.5522 86.4209 58.6302 86.3422 58.6302 86.1848V84.9254C58.6302 84.8467 58.5522 84.768 58.396 84.768L55.4294 84.8467C55.3513 84.8467 55.2732 84.9254 55.2732 85.0829V86.3422C55.2732 86.4209 55.2732 86.4209 55.3513 86.4996C55.3513 86.4996 55.4294 86.5783 55.5075 86.5783H56.132L56.2881 93.2684H55.6636C55.5855 93.2684 55.5855 93.2684 55.5075 93.3471C55.5075 93.4259 55.4294 93.4259 55.4294 93.5046L55.5075 94.8426C55.5075 94.9213 55.5855 95 55.6636 95L61.0504 94.9213C61.1285 94.9213 61.2065 94.8426 61.2065 94.6852V91.8517C61.2846 91.773 61.2065 91.6156 61.1285 91.6156Z" fill="#605656"/>
<path d="M68.0767 91.8517C67.9986 91.8517 67.9986 91.773 67.9205 91.8517L67.2179 92.0091L65.8907 85.4764L66.5153 85.319C66.5933 85.319 66.5933 85.2403 66.5933 85.2403C66.5933 85.1616 66.5933 85.1616 66.5933 85.0829L66.203 83.9022C66.203 83.8235 66.0468 83.7448 65.9688 83.7448L63.3144 84.2958C63.2363 84.2958 63.1583 84.4532 63.1583 84.5319L63.3925 85.8699C63.3925 85.9486 63.4706 85.9486 63.4706 86.0273C63.5486 86.0273 63.5486 86.0273 63.6267 86.0273L64.2512 85.8699L65.6565 92.4027L65.0319 92.5601C64.9539 92.5601 64.9539 92.6388 64.8758 92.6388C64.8758 92.7175 64.8758 92.7175 64.8758 92.7962L65.1881 94.0555C65.1881 94.1342 65.2661 94.2129 65.3442 94.2129C65.3442 94.2129 65.3442 94.2129 65.4223 94.2129L68.1547 93.5046C68.2328 93.5046 68.3109 93.3471 68.3109 93.2684L68.0767 92.0091C68.1547 91.9304 68.0767 91.8517 68.0767 91.8517Z" fill="#605656"/>
<path d="M75.9617 89.0182C75.8836 89.0182 75.8836 89.0182 75.8055 89.0182L75.1029 89.3331L72.5266 82.9578L73.2292 82.6429L73.9319 84.1384C73.9319 84.2171 74.0099 84.2171 74.088 84.2171C74.1661 84.2171 74.1661 84.2171 74.2441 84.2171L75.181 83.6661C75.2591 83.5874 75.3371 83.5087 75.2591 83.43L73.9319 80.7539C73.8538 80.6752 73.7757 80.5965 73.6977 80.6752L68.6231 83.0365C68.5451 83.1152 68.467 83.1939 68.5451 83.2726L69.638 86.0274C69.638 86.1061 69.7161 86.1061 69.7161 86.1061C69.7942 86.1061 69.7942 86.1061 69.8723 86.1061L70.8872 85.6338C70.9652 85.6338 70.9652 85.5551 70.9652 85.5551C70.9652 85.4764 70.9652 85.4764 70.9652 85.3977L70.3407 83.981L71.1214 83.5874L73.7757 89.8053L73.2292 90.0414C73.1512 90.0414 73.1512 90.1201 73.1512 90.1201C73.1512 90.1989 73.1512 90.1988 73.1512 90.2776L73.6977 91.4582C73.6977 91.5369 73.7757 91.5369 73.8538 91.5369H73.9319L76.5082 90.3563C76.5862 90.2776 76.6643 90.1989 76.5862 90.1201L76.1959 88.9395C76.0398 89.0182 75.9617 89.0182 75.9617 89.0182Z" fill="#605656"/>
<path d="M85.0958 85.0042L84.4713 83.981C84.4713 83.9022 84.3932 83.9022 84.3151 83.9022C84.2371 83.9022 84.2371 83.9022 84.159 83.9022L83.5344 84.3745L82.3634 82.7216L81.1923 77.7631L81.7388 77.2908C81.8169 77.2121 81.8169 77.1334 81.7388 76.976L80.8801 75.9528C80.802 75.8741 80.7239 75.8741 80.6459 75.9528L78.3818 77.6056C78.3038 77.6843 78.3038 77.7631 78.3038 77.8418L79.0064 78.9437C79.0064 79.0224 79.0845 79.0224 79.1625 79.0224C79.2406 79.0224 79.2406 79.0224 79.3187 79.0224L79.7871 78.7075L80.6459 81.6984L78.2257 79.8095L78.616 79.4159C78.6941 79.4159 78.6941 79.3372 78.6941 79.2585C78.6941 79.1798 78.6941 79.1798 78.616 79.1011L77.8354 78.1566C77.7573 78.0779 77.6792 78.0779 77.6011 78.1566L75.3371 79.8095C75.2591 79.8882 75.2591 79.9669 75.2591 80.0456L75.9617 81.1475C75.9617 81.2262 76.0398 81.2262 76.1178 81.2262C76.1959 81.2262 76.1959 81.2262 76.274 81.2262L76.8205 80.7539L80.9581 83.5087L82.1292 85.1616L81.6608 85.5551C81.5827 85.5551 81.5827 85.6338 81.5827 85.7125C81.5827 85.7912 81.5827 85.7912 81.5827 85.8699L82.3634 86.8931C82.3634 86.9718 82.4415 86.9718 82.5195 86.9718C82.5976 86.9718 82.5976 86.9718 82.6757 86.9718L84.9397 85.2403C85.1739 85.1616 85.1739 85.0829 85.0958 85.0042Z" fill="#605656"/>
<path d="M12.335 59.3455C12.4911 59.3455 12.6473 59.3455 12.8034 59.4242V41.0066C13.1157 40.5344 13.506 39.6686 13.506 38.7241C13.506 37.2287 12.5692 36.048 12.5692 36.048C12.5692 36.048 11.6324 37.2287 11.6324 38.7241C11.6324 39.6686 12.0227 40.5344 12.335 41.0066V42.5808C12.1789 42.1085 11.9446 41.4789 11.4762 40.9279C10.4613 39.826 8.978 39.5899 8.978 39.5899C8.978 39.5899 9.05607 41.0853 10.071 42.1872C10.8517 43.053 11.9446 43.3679 12.335 43.4466V45.4142C12.1789 44.942 11.9446 44.2336 11.4762 43.7614C10.4613 42.6595 8.978 42.4234 8.978 42.4234C8.978 42.4234 9.05607 43.9188 10.071 45.0207C10.8517 45.8865 11.9446 46.2013 12.335 46.28V48.2477C12.1789 47.7755 11.9446 47.0671 11.4762 46.5949C10.4613 45.493 8.978 45.2568 8.978 45.2568C8.978 45.2568 9.05607 46.7523 10.071 47.8542C10.8517 48.72 11.9446 49.0348 12.335 49.1135V51.0812C12.1789 50.6089 11.9446 49.9006 11.4762 49.4283C10.4613 48.3264 8.978 48.0903 8.978 48.0903C8.978 48.0903 9.05607 49.5858 10.071 50.6877C10.8517 51.5534 11.9446 51.8683 12.335 51.947V53.9147C12.1789 53.4424 11.9446 52.7341 11.4762 52.2618C10.4613 51.1599 8.978 50.9238 8.978 50.9238C8.978 50.9238 9.05607 52.4192 10.071 53.5211C10.8517 54.3869 11.9446 54.7017 12.335 54.7804V56.6694C12.1789 56.1972 11.9446 55.4888 11.4762 55.0166C10.4613 53.9147 8.978 53.6785 8.978 53.6785C8.978 53.6785 9.05607 55.174 10.071 56.2759C10.8517 57.1417 11.9446 57.4565 12.335 57.5352V59.3455V59.3455Z" fill="white"/>
<path d="M15.3016 56.3546C16.3165 55.2527 16.3946 53.7572 16.3946 53.7572C16.3946 53.7572 14.9113 53.9934 13.8964 55.0953C12.8815 56.1972 12.8034 57.6926 12.8034 57.6926C12.8034 57.6926 14.3648 57.3778 15.3016 56.3546Z" fill="white"/>
<path d="M15.3016 53.5211C16.3165 52.4192 16.3946 50.9238 16.3946 50.9238C16.3946 50.9238 14.9113 51.1599 13.8964 52.2618C12.8815 53.3637 12.8034 54.8592 12.8034 54.8592C12.8034 54.8592 14.3648 54.5443 15.3016 53.5211Z" fill="white"/>
<path d="M15.3016 50.6877C16.3165 49.5857 16.3946 48.0903 16.3946 48.0903C16.3946 48.0903 14.9113 48.3264 13.8964 49.4283C12.8815 50.5302 12.8034 52.0257 12.8034 52.0257C12.8034 52.0257 14.3648 51.7109 15.3016 50.6877Z" fill="white"/>
<path d="M15.3016 47.8542C16.3165 46.7523 16.3946 45.2568 16.3946 45.2568C16.3946 45.2568 14.9113 45.493 13.8964 46.5949C12.8815 47.6968 12.8034 49.1922 12.8034 49.1922C12.8034 49.1922 14.3648 48.9561 15.3016 47.8542Z" fill="white"/>
<path d="M15.3016 45.0207C16.3165 43.9188 16.3946 42.4234 16.3946 42.4234C16.3946 42.4234 14.9113 42.6595 13.8964 43.7614C12.8815 44.8633 12.8034 46.3587 12.8034 46.3587C12.8034 46.3587 14.3648 46.1226 15.3016 45.0207Z" fill="white"/>
<path d="M15.3016 42.1872C16.3165 41.0853 16.3946 39.5899 16.3946 39.5899C16.3946 39.5899 14.9113 39.826 13.8964 40.9279C12.8815 42.0298 12.8034 43.5253 12.8034 43.5253C12.8034 43.5253 14.3648 43.2891 15.3016 42.1872Z" fill="white"/>
<path d="M96.9624 59.3455C97.1185 59.3455 97.2747 59.3455 97.4308 59.4242V41.0066C97.7431 40.5344 98.1334 39.6686 98.1334 38.7241C98.1334 37.2287 97.1966 36.048 97.1966 36.048C97.1966 36.048 96.2598 37.2287 96.2598 38.7241C96.2598 39.6686 96.6501 40.5344 96.9624 41.0066V42.5808C96.8063 42.1085 96.572 41.4789 96.1036 40.9279C95.0887 39.826 93.6054 39.5899 93.6054 39.5899C93.6054 39.5899 93.6835 41.0853 94.6984 42.1872C95.4791 43.053 96.572 43.3679 96.9624 43.4466V45.4142C96.8063 44.942 96.572 44.2336 96.1036 43.7614C95.0887 42.6595 93.6054 42.4234 93.6054 42.4234C93.6054 42.4234 93.6835 43.9188 94.6984 45.0207C95.4791 45.8865 96.572 46.2013 96.9624 46.28V48.2477C96.8063 47.7755 96.572 47.0671 96.1036 46.5949C95.0887 45.493 93.6054 45.2568 93.6054 45.2568C93.6054 45.2568 93.6835 46.7523 94.6984 47.8542C95.4791 48.72 96.572 49.0348 96.9624 49.1135V51.0812C96.8063 50.6089 96.572 49.9006 96.1036 49.4283C95.0887 48.3264 93.6054 48.0903 93.6054 48.0903C93.6054 48.0903 93.6835 49.5858 94.6984 50.6877C95.4791 51.5534 96.572 51.8683 96.9624 51.947V53.9147C96.8063 53.4424 96.572 52.7341 96.1036 52.2618C95.0887 51.1599 93.6054 50.9238 93.6054 50.9238C93.6054 50.9238 93.6835 52.4192 94.6984 53.5211C95.4791 54.3869 96.572 54.7017 96.9624 54.7804V56.6694C96.8063 56.1972 96.572 55.4888 96.1036 55.0166C95.0887 53.9147 93.6054 53.6785 93.6054 53.6785C93.6054 53.6785 93.6835 55.174 94.6984 56.2759C95.4791 57.1417 96.572 57.4565 96.9624 57.5352V59.3455V59.3455Z" fill="white"/>
<path d="M99.929 56.3546C100.944 55.2527 101.022 53.7572 101.022 53.7572C101.022 53.7572 99.5387 53.9934 98.5238 55.0953C97.5089 56.1972 97.4308 57.6926 97.4308 57.6926C97.4308 57.6926 98.9922 57.3778 99.929 56.3546Z" fill="white"/>
<path d="M99.929 53.5211C100.944 52.4192 101.022 50.9238 101.022 50.9238C101.022 50.9238 99.5387 51.1599 98.5238 52.2618C97.5089 53.3637 97.4308 54.8592 97.4308 54.8592C97.4308 54.8592 98.9922 54.5443 99.929 53.5211Z" fill="white"/>
<path d="M99.929 50.6877C100.944 49.5857 101.022 48.0903 101.022 48.0903C101.022 48.0903 99.5387 48.3264 98.5238 49.4283C97.5089 50.5302 97.4308 52.0257 97.4308 52.0257C97.4308 52.0257 98.9922 51.7109 99.929 50.6877Z" fill="white"/>
<path d="M99.929 47.8542C100.944 46.7523 101.022 45.2568 101.022 45.2568C101.022 45.2568 99.5387 45.493 98.5238 46.5949C97.5089 47.6968 97.4308 49.1922 97.4308 49.1922C97.4308 49.1922 98.9922 48.9561 99.929 47.8542Z" fill="white"/>
<path d="M99.929 45.0207C100.944 43.9188 101.022 42.4234 101.022 42.4234C101.022 42.4234 99.5387 42.6595 98.5238 43.7614C97.5089 44.8633 97.4308 46.3587 97.4308 46.3587C97.4308 46.3587 98.9922 46.1226 99.929 45.0207Z" fill="white"/>
<path d="M99.929 42.1872C100.944 41.0853 101.022 39.5899 101.022 39.5899C101.022 39.5899 99.5387 39.826 98.5238 40.9279C97.5089 42.0298 97.4308 43.5253 97.4308 43.5253C97.4308 43.5253 98.9922 43.2891 99.929 42.1872Z" fill="white"/>
</g>
</symbol>
<!--  -->

 <symbol id="serch" width="24" height="24" viewBox="0 0 24 24" fill="none" >
 <g clip-path="url(#clip0_8_6)">
<path d="M10.5691 0C4.74145 0 0 4.74145 0 10.5691C0 16.3971 4.74145 21.1382 10.5691 21.1382C16.3971 21.1382 21.1382 16.3971 21.1382 10.5691C21.1382 4.74145 16.3971 0 10.5691 0ZM10.5691 19.187C5.81723 19.187 1.95122 15.321 1.95122 10.5691C1.95122 5.81728 5.81723 1.95122 10.5691 1.95122C15.321 1.95122 19.187 5.81723 19.187 10.5691C19.187 15.321 15.321 19.187 10.5691 19.187Z" fill="#1F1F1F"/>
<path d="M23.7142 22.3346L18.1207 16.7411C17.7396 16.36 17.1223 16.36 16.7412 16.7411C16.36 17.1219 16.36 17.7398 16.7412 18.1207L22.3347 23.7142C22.5252 23.9047 22.7747 24 23.0245 24C23.2739 24 23.5236 23.9047 23.7142 23.7142C24.0954 23.3334 24.0954 22.7154 23.7142 22.3346Z" fill="#1F1F1F"/>
</g>
</symbol>
<!-- - -->
 <symbol id="login" width="24" height="24" viewBox="0 0 24 30" fill="none" >
 <g>
 <path d="M23.1253 26.3547L23.1253 26.3547C22.9184 26.4788 18.207 29.2625 12 29.2625C6.26778 29.2625 1.1186 26.4884 0.898502 26.3683C0.898499 26.3683 0.898496 26.3683 0.898493 26.3683L0.994277 26.1928C0.920352 26.1524 0.858655 26.0929 0.81567 26.0205C0.772686 25.9481 0.75 25.8655 0.75 25.7812C0.75 21.9965 1.91057 18.5332 4.01783 16.0288C5.42294 14.359 7.16918 13.1957 9.09626 12.6144L23.1253 26.3547ZM23.1253 26.3547C23.2243 26.2953 23.3063 26.2112 23.3632 26.1107C23.4201 26.0102 23.45 25.8967 23.45 25.7812C23.45 21.9572 22.2775 18.446 20.1352 15.9C18.7517 14.2558 17.0399 13.0915 15.1472 12.4809M23.1253 26.3547L15.1472 12.4809M15.1472 12.4809C16.2327 11.8541 17.1099 10.9152 17.661 9.78093C18.2851 8.49623 18.4538 7.03744 18.1392 5.64422C17.8246 4.251 17.0454 3.00623 15.9298 2.11441C14.8141 1.22259 13.4283 0.736768 12 0.736768C10.5717 0.736768 9.18588 1.22259 8.07022 2.11441C6.95457 3.00623 6.17543 4.251 5.86082 5.64422C5.54622 7.03744 5.71486 8.49623 6.33904 9.78093C6.89011 10.9152 7.76732 11.8541 8.85279 12.4809C6.96011 13.0915 5.24828 14.2559 3.8648 15.9L15.1472 12.4809ZM14.7535 11.1522C13.9386 11.6968 12.9804 11.9875 12.0002 11.9875C10.6861 11.986 9.42631 11.4633 8.49711 10.5341C7.56792 9.60494 7.04524 8.3451 7.04375 7.03102C7.04379 6.05085 7.33447 5.09269 7.87903 4.2777C8.42363 3.46265 9.19769 2.8274 10.1033 2.45227C11.009 2.07714 12.0055 1.97899 12.9669 2.17023C13.9283 2.36147 14.8115 2.83351 15.5046 3.52665C16.1977 4.2198 16.6698 5.10291 16.861 6.06433C17.0523 7.02575 16.9541 8.02229 16.579 8.92792C16.2039 9.83356 15.5686 10.6076 14.7535 11.1522ZM4.88817 16.7611C6.75643 14.5413 9.28157 13.325 12 13.325C14.7184 13.325 17.2436 14.5413 19.1118 16.7611C20.97 18.9694 22.0316 22.0189 22.1081 25.3892C20.9526 26.0008 16.9241 27.925 12 27.925C7.44593 27.925 3.13817 25.9863 1.89233 25.3739C1.9718 22.0095 3.03283 18.966 4.88817 16.7611Z" fill="#1F1F1F" stroke="#1F1F1F" stroke-width="0.2"/>
</g>
</symbol>
<!--  -->
 <symbol id="backet" width="30" height="30" viewBox="0 0 30 30" fill="none" >
 <g clip-path="url(#clip0_8_6)">
<path d="M9.66568 19.3948H9.66705C9.6682 19.3948 9.66934 19.3945 9.67049 19.3945H25.6055C25.9978 19.3945 26.3427 19.1343 26.4505 18.7571L29.9661 6.45242C30.0419 6.18714 29.9888 5.90195 29.8228 5.68177C29.6567 5.46159 29.3969 5.33204 29.1211 5.33204H7.6387L7.01042 2.50466C6.92093 2.10252 6.56433 1.81641 6.15234 1.81641H0.878906C0.393448 1.81641 0 2.20986 0 2.69532C0 3.18078 0.393448 3.57423 0.878906 3.57423H5.44739C5.55862 4.07525 8.45398 17.1046 8.62061 17.8542C7.68654 18.2602 7.03125 19.1915 7.03125 20.2734C7.03125 21.7273 8.21411 22.9102 9.66797 22.9102H25.6055C26.0909 22.9102 26.4844 22.5167 26.4844 22.0313C26.4844 21.5458 26.0909 21.1524 25.6055 21.1524H9.66797C9.18343 21.1524 8.78906 20.758 8.78906 20.2734C8.78906 19.7896 9.18205 19.3959 9.66568 19.3948ZM27.9559 7.08985L24.9424 17.6367H10.3729L8.02917 7.08985H27.9559Z" fill="#1F1F1F"/>
<path d="M8.78906 25.5469C8.78906 27.0007 9.97192 28.1836 11.4258 28.1836C12.8796 28.1836 14.0625 27.0007 14.0625 25.5469C14.0625 24.093 12.8796 22.9101 11.4258 22.9101C9.97192 22.9101 8.78906 24.093 8.78906 25.5469ZM11.4258 24.668C11.9103 24.668 12.3047 25.0623 12.3047 25.5469C12.3047 26.0314 11.9103 26.4258 11.4258 26.4258C10.9412 26.4258 10.5469 26.0314 10.5469 25.5469C10.5469 25.0623 10.9412 24.668 11.4258 24.668Z" fill="#1F1F1F"/>
<path d="M21.2109 25.5469C21.2109 27.0007 22.3938 28.1836 23.8477 28.1836C25.3015 28.1836 26.4844 27.0007 26.4844 25.5469C26.4844 24.093 25.3015 22.9101 23.8477 22.9101C22.3938 22.9101 21.2109 24.093 21.2109 25.5469ZM23.8477 24.668C24.3322 24.668 24.7266 25.0623 24.7266 25.5469C24.7266 26.0314 24.3322 26.4258 23.8477 26.4258C23.3631 26.4258 22.9688 26.0314 22.9688 25.5469C22.9688 25.0623 23.3631 24.668 23.8477 24.668Z" fill="#1F1F1F"/>
</g>
</symbol>
<!--  -->
 <symbol id="partner" width="100" height="130" viewBox="0 0 100 130" fill="none" >
<g clip-path="url(#clip0_40_20)">
<path d="M39.8177 105.494C39.7164 104.996 39.5137 104.697 39.2098 104.697C38.8045 104.697 38.6019 104.996 38.6019 105.594C38.5006 106.192 38.5006 106.889 38.5006 107.786C38.5006 107.885 38.5006 107.985 38.5006 108.084C38.5006 108.184 38.5006 108.284 38.5006 108.383C38.5006 108.483 38.5006 108.582 38.5006 108.682C38.5006 108.782 38.5006 108.881 38.5006 108.881C38.5006 109.778 38.5006 110.575 38.6019 111.172C38.7032 111.77 38.9058 112.169 39.2098 112.169C39.6151 112.169 39.8177 111.87 39.919 111.272C40.0203 110.674 40.0203 109.877 40.0203 108.881H42.4519C42.4519 110.575 42.3506 111.87 42.0467 112.966C41.7427 113.962 40.8309 114.46 39.3111 114.46C37.7913 114.46 36.6769 113.862 36.069 112.667C35.4611 111.471 35.1571 110.077 35.1571 108.483C35.1571 106.789 35.4611 105.395 36.1703 104.199C36.7782 103.004 37.8927 102.406 39.4124 102.506C39.6151 102.506 39.8177 102.605 39.919 102.605C40.0203 102.605 40.223 102.705 40.223 102.705C40.3243 102.805 40.4256 102.805 40.4256 102.805C40.5269 102.805 40.5269 102.904 40.5269 102.904C40.6282 102.904 40.6282 102.904 40.7295 102.805C40.8309 102.805 40.9322 102.705 41.0335 102.605H42.4519V107.387H40.1216C40.0203 106.59 39.919 105.992 39.8177 105.494Z" fill="white"/>
<path d="M46.9099 104.996C46.8085 105.096 46.7072 105.196 46.6059 105.295V111.671C46.7072 111.87 46.8085 111.969 46.9099 112.069C47.0112 112.169 47.2138 112.169 47.5178 112.169V114.261H42.6545V112.169C42.8572 112.169 43.0598 112.169 43.2624 112.069C43.4651 111.969 43.4651 111.87 43.5664 111.77V105.295C43.5664 105.295 43.5664 105.295 43.5664 105.196C43.4651 105.096 43.4651 105.096 43.3638 104.996C43.2624 104.996 43.1611 104.897 43.0598 104.897H42.9585H42.8572V102.605H47.7204V104.797C47.2138 104.797 47.0112 104.897 46.9099 104.996Z" fill="white"/>
<path d="M49.8481 112.169C49.9494 112.169 49.9494 112.169 50.0507 112.169C50.152 112.169 50.152 112.169 50.2533 112.069C50.3546 112.069 50.3547 111.969 50.456 111.969C50.456 111.969 50.456 111.87 50.5573 111.87L50.6586 111.77V105.195C50.6586 105.096 50.6586 104.996 50.6586 104.996C50.6586 104.996 50.5573 104.996 50.3547 104.996C50.152 105.096 50.0507 105.195 49.9494 105.295C49.8481 105.395 49.8481 105.494 49.7467 105.594C49.7467 105.694 49.7467 105.694 49.7467 105.793C49.7467 105.893 49.7467 105.893 49.7467 105.992V106.092V106.192V107.786H48.227V102.805H56.1297V107.786H54.61V106.192V106.092C54.61 105.992 54.61 105.992 54.61 105.893C54.61 105.694 54.5087 105.594 54.5087 105.395C54.4073 105.195 54.306 105.096 54.2047 104.996C54.0021 104.996 53.9008 104.996 53.9008 104.996C53.7994 104.996 53.7994 105.096 53.7994 105.195V111.87C53.7994 111.969 53.9008 111.969 53.9008 111.969C53.9008 111.969 53.9008 112.069 54.0021 112.069L54.1034 112.169C54.1034 112.169 54.2047 112.169 54.306 112.268C54.306 112.268 54.4073 112.268 54.5087 112.268C54.61 112.268 54.7113 112.268 54.7113 112.368V114.46H49.6454V112.268C49.7467 112.169 49.7467 112.169 49.8481 112.169Z" fill="white"/>
<path d="M60.689 104.797C60.689 104.897 60.689 104.897 60.689 104.797C60.5877 104.897 60.5877 104.897 60.4863 104.897L60.385 104.996C60.385 105.096 60.2837 105.096 60.2837 105.196C60.2837 105.196 60.2837 105.196 60.2837 105.295C60.2837 105.295 60.2837 105.295 60.2837 105.395L60.9929 106.59L61.3982 105.395C61.3982 105.295 61.3982 105.295 61.3982 105.295C61.3982 105.295 61.3982 105.196 61.2969 105.196C61.2969 105.196 61.2969 105.096 61.1956 105.096L61.0942 104.996V102.805H64.6403V104.996C64.6403 104.996 64.6403 104.996 64.539 104.996C64.3364 104.996 64.1338 104.996 63.9311 105.096C63.7285 105.196 63.6272 105.295 63.5259 105.494L62.1074 109.479V111.77C62.2087 111.969 62.31 112.069 62.4114 112.169C62.5127 112.268 62.7153 112.268 62.8166 112.368C62.8166 112.368 62.8166 112.368 62.918 112.368C62.918 112.368 62.918 112.368 63.0193 112.368V114.46H58.2574V112.368C58.2574 112.368 58.2574 112.368 58.3587 112.368C58.3587 112.368 58.3587 112.368 58.46 112.368C58.6626 112.268 58.7639 112.268 58.8653 112.169C58.9666 112.069 59.0679 111.969 59.0679 111.77V109.479L57.1429 105.395C57.1429 105.395 57.1429 105.395 57.1429 105.295C57.1429 105.295 57.1429 105.295 57.1429 105.196C57.0416 105.096 56.9402 104.996 56.8389 104.897C56.7376 104.797 56.6363 104.797 56.4337 104.797V102.605H60.7903V104.797H60.689Z" fill="white"/>
<path d="M28.4701 118.445C29.078 118.644 29.6859 119.042 30.0912 119.64C30.2939 119.839 30.3952 120.138 30.4965 120.437C30.5978 120.736 30.6991 121.035 30.6991 121.333V121.433V121.533C30.6991 121.832 30.6991 122.031 30.5978 122.33C30.4965 122.629 30.3952 122.828 30.2939 123.027C30.1925 123.127 30.0912 123.226 30.0912 123.326C29.9899 123.425 29.9899 123.425 29.8886 123.525C29.8886 123.625 29.7873 123.625 29.6859 123.724C29.5846 123.824 29.4833 123.824 29.382 123.924C29.7873 124.123 30.0912 124.422 30.3952 124.82C30.6991 125.219 30.8004 125.617 30.9018 126.115C30.9018 126.215 30.9018 126.314 30.9018 126.414C30.9018 126.514 30.9018 126.613 30.9018 126.713C30.9018 126.912 30.9018 127.111 30.9018 127.31C30.9018 127.51 30.8004 127.709 30.8004 127.908C30.6991 128.307 30.3952 128.705 30.0912 129.004C29.7873 129.303 29.382 129.502 29.078 129.701C28.8754 129.701 28.6728 129.801 28.4701 129.801C28.2675 129.801 28.0649 129.801 27.8622 129.901C27.6596 129.901 27.457 129.901 27.2543 129.901C27.0517 129.901 26.8491 129.901 26.6464 129.901H22.5938V127.809H22.6951H22.7964C22.8977 127.809 22.999 127.709 23.2017 127.709C23.303 127.609 23.4043 127.51 23.5056 127.41V121.134C23.5056 121.134 23.5056 121.134 23.5056 121.035V120.935C23.4043 120.835 23.303 120.636 23.2017 120.636C23.1003 120.537 22.8977 120.537 22.6951 120.437V118.245H26.6464C27.153 118.245 27.8622 118.345 28.4701 118.445ZM27.6596 121.931C27.6596 121.333 27.5583 121.035 27.3557 120.935C27.153 120.835 26.9504 120.736 26.7478 120.835H26.6464H26.5451L26.4438 123.127H26.5451H26.6464C26.8491 123.127 27.0517 123.127 27.2543 123.027C27.5583 122.828 27.6596 122.529 27.6596 121.931ZM27.6596 126.414C27.6596 125.816 27.5583 125.517 27.457 125.318C27.3557 125.119 27.153 125.119 26.9504 125.119H26.8491H26.7478H26.6464H26.5451L26.4438 127.709H26.5451H26.6464C26.8491 127.709 27.0517 127.709 27.2543 127.609C27.5583 127.51 27.6596 127.111 27.6596 126.414Z" fill="white"/>
<path d="M39.615 127.211C39.615 127.311 39.615 127.41 39.7163 127.51C39.8177 127.609 39.919 127.609 40.0203 127.709H40.1216H40.2229V129.801H35.765V127.609C35.765 127.609 35.765 127.609 35.8663 127.609C35.8663 127.609 35.8663 127.609 35.9676 127.609C36.0689 127.609 36.1702 127.51 36.2715 127.41C36.3729 127.311 36.3729 127.211 36.3729 127.111L36.1702 126.314H34.8531L34.6505 127.111C34.6505 127.211 34.7518 127.311 34.8531 127.41C34.9544 127.51 35.1571 127.51 35.3597 127.51V129.602H31.4083V127.41C31.5096 127.41 31.5096 127.41 31.611 127.41H31.7123C31.8136 127.41 31.9149 127.311 31.9149 127.311C32.0162 127.311 32.0162 127.211 32.1175 127.111C32.1175 127.111 32.1175 127.012 32.2189 127.012C32.2189 127.012 32.2189 126.912 32.3202 126.912L34.1439 117.947H37.4874L39.615 127.211ZM34.8531 124.92H35.9676L35.3597 122.529L34.8531 124.92Z" fill="white"/>
<path d="M50.0507 120.337C49.9494 120.337 49.9494 120.437 49.848 120.437C49.7467 120.437 49.7467 120.437 49.6454 120.537C49.5441 120.537 49.4428 120.636 49.3415 120.636C49.2401 120.636 49.1388 120.736 49.1388 120.835C49.0375 120.935 48.8349 121.134 48.6322 121.433C48.4296 121.732 48.227 122.031 47.8217 122.628L49.5441 127.41C49.5441 127.51 49.6454 127.51 49.6454 127.609L49.7467 127.709L49.848 127.809C49.848 127.809 49.9494 127.908 50.0507 127.908C50.0507 127.908 50.152 127.908 50.152 128.008C50.152 128.008 50.2533 128.008 50.2533 128.107L50.152 130.199H45.7954V128.107C45.8967 128.107 45.8967 128.008 45.998 128.008C45.998 128.008 46.0993 127.908 46.0993 127.809C46.0993 127.809 46.0993 127.809 46.0993 127.709C46.0993 127.709 46.0993 127.709 46.0993 127.609L45.4914 125.617C45.4914 125.617 45.4914 125.617 45.3901 125.717C45.2888 125.816 45.2888 125.816 45.1874 125.916C45.0861 126.015 45.0861 126.015 44.9848 126.115C44.8835 126.215 44.8835 126.215 44.8835 126.215V127.41C44.8835 127.51 44.8835 127.709 44.9848 127.709C45.0861 127.809 45.0861 127.809 45.1874 127.908C45.1874 127.908 45.2888 127.908 45.2888 128.008C45.2888 128.008 45.3901 128.008 45.3901 128.107V130.1H40.9321V128.107C40.9321 128.107 41.0334 128.107 41.0334 128.008C41.0334 128.008 41.1348 128.008 41.1348 127.908C41.2361 127.908 41.2361 127.809 41.3374 127.809L41.4387 127.709L41.54 127.609L41.6413 127.51V121.234C41.6413 121.035 41.54 120.935 41.4387 120.835C41.3374 120.736 41.2361 120.736 41.1348 120.636H41.0334H40.9321V118.544H45.3901V120.736C45.2888 120.835 45.0861 120.835 44.9848 120.935C44.8835 121.035 44.8835 121.134 44.8835 121.234V123.127C45.3901 122.429 45.7953 121.931 45.8967 121.533C46.0993 121.134 46.0993 120.935 46.0993 120.835C46.0993 120.736 46.0993 120.736 46.0993 120.736C46.0993 120.736 46.0993 120.736 46.0993 120.636V118.445L50.152 118.345V120.337H50.0507Z" fill="white"/>
<path d="M58.6626 122.728H56.9402V120.835C56.9402 120.636 56.8389 120.537 56.6363 120.437C56.4336 120.337 56.1297 120.337 55.9271 120.337C55.6231 120.337 55.4205 120.437 55.1165 120.537C54.9139 120.636 54.7113 120.835 54.7113 121.035V122.828C55.0152 122.828 55.2178 122.828 55.2178 122.629C55.3192 122.529 55.3192 122.33 55.3192 121.931H56.231V125.816H55.3192C55.3192 125.418 55.3192 125.219 55.2178 125.119C55.1165 125.019 54.9139 125.019 54.7113 125.019V127.211C54.7113 127.41 54.8126 127.51 55.1165 127.609C55.3192 127.709 55.6231 127.809 55.9271 127.809C56.231 127.809 56.4336 127.709 56.7376 127.609C56.9402 127.51 57.0415 127.31 57.0415 127.111V124.72H58.7639V129.901H50.8612V127.709C51.0638 127.709 51.2665 127.709 51.4691 127.51C51.6717 127.41 51.7731 127.211 51.7731 127.012V120.935C51.7731 120.736 51.6717 120.636 51.5704 120.537C51.3678 120.437 51.1652 120.337 50.9625 120.337V118.146H58.8653V122.728H58.6626Z" fill="white"/>
<path d="M65.147 118.445C65.7549 118.644 66.3628 119.042 66.768 119.64C66.9707 119.839 67.072 120.138 67.1733 120.437C67.2746 120.736 67.3759 121.035 67.3759 121.334V121.433V121.533C67.3759 121.832 67.3759 122.031 67.2746 122.33C67.1733 122.629 67.072 122.828 66.9707 123.027C66.9707 123.127 66.9707 123.127 66.8693 123.226C66.768 123.326 66.768 123.425 66.6667 123.525L66.5654 123.625L66.4641 123.724C66.3628 123.824 66.2615 123.924 66.1601 123.924C66.0588 124.023 65.9575 124.023 65.9575 124.023C66.4641 124.123 66.8693 124.422 66.9707 124.82C67.1733 125.219 67.2746 125.617 67.2746 126.016C67.2746 126.115 67.2746 126.115 67.2746 126.215C67.2746 126.314 67.2746 126.314 67.2746 126.414C67.2746 126.514 67.2746 126.613 67.2746 126.812C67.2746 126.912 67.2746 127.012 67.2746 127.211C67.2746 127.51 67.2746 127.709 67.2746 127.809C67.2746 128.008 67.2746 128.107 67.3759 128.107C67.4773 128.107 67.5786 128.107 67.5786 128.008C67.5786 127.908 67.6799 127.908 67.6799 127.809V127.709V127.609H67.9838C67.9838 127.609 67.9838 127.609 67.9838 127.709C67.9838 127.709 67.9838 127.809 67.9838 127.908C67.9838 128.008 67.9838 128.107 67.9838 128.207C67.9838 128.307 67.9838 128.406 67.9838 128.506C67.9838 128.606 67.9838 128.705 67.8825 128.904C67.7812 129.203 67.5786 129.502 67.2746 129.801C66.9707 130.1 66.5654 130.199 65.8562 130.199C65.0456 130.199 64.5391 129.901 64.4377 129.402C64.2351 128.904 64.2351 128.307 64.1338 127.709C64.1338 127.609 64.1338 127.609 64.1338 127.609V127.51V127.41V127.311C64.1338 126.912 64.1338 126.414 64.0325 126.016C64.0325 125.617 63.8298 125.219 63.6272 124.92L63.5259 124.82C63.5259 124.82 63.4246 124.82 63.4246 124.72H63.3233H63.2219V127.609C63.3233 127.809 63.4246 127.908 63.5259 127.908C63.6272 128.008 63.8298 128.008 64.0325 128.008V130.1H59.1693V128.008H59.2706H59.3719C59.4732 128.008 59.5745 127.908 59.7772 127.908C59.8785 127.809 59.9798 127.709 60.0811 127.609V121.334C60.0811 121.334 60.0811 121.334 60.0811 121.234V121.134C59.9798 121.035 59.8785 120.835 59.7772 120.835C59.6758 120.736 59.4732 120.736 59.2706 120.636V118.445H63.2219C63.7285 118.245 64.4377 118.345 65.147 118.445ZM64.2351 121.931C64.2351 121.334 64.1338 121.035 63.9312 120.935C63.7285 120.835 63.5259 120.736 63.3233 120.835H63.2219H63.1206L63.0193 123.127H63.1206H63.2219C63.4246 123.127 63.6272 123.127 63.8298 123.027C64.1338 122.828 64.2351 122.529 64.2351 121.931Z" fill="white"/>
<path d="M73.151 120.337C73.151 120.437 73.151 120.437 73.151 120.337C73.0497 120.437 73.0497 120.437 72.9484 120.437L72.8471 120.537C72.8471 120.636 72.7457 120.636 72.7457 120.736C72.7457 120.736 72.7457 120.736 72.7457 120.835C72.7457 120.835 72.7457 120.835 72.7457 120.935L73.455 122.13L73.8602 120.935C73.8602 120.835 73.8602 120.835 73.8602 120.835C73.8602 120.835 73.8602 120.736 73.7589 120.736C73.7589 120.736 73.7589 120.636 73.6576 120.636L73.5563 120.537V118.345H77.1024V120.537C77.1024 120.537 77.1024 120.537 77.0011 120.537C76.8997 120.537 77.0011 120.537 77.0011 120.537C76.7984 120.537 76.5958 120.537 76.3932 120.636C76.1905 120.736 76.0892 120.835 75.9879 121.035L74.5694 125.019V127.311C74.6708 127.51 74.7721 127.609 74.8734 127.709C74.9747 127.809 75.1774 127.809 75.2787 127.908C75.2787 127.908 75.2787 127.908 75.38 127.908C75.38 127.908 75.38 127.908 75.4813 127.908V130H70.7194V127.908C70.7194 127.908 70.7194 127.908 70.8207 127.908C70.8207 127.908 70.8207 127.908 70.922 127.908C71.1247 127.809 71.226 127.809 71.3273 127.709C71.4286 127.609 71.5299 127.51 71.5299 127.311V125.019L69.6049 120.935C69.6049 120.935 69.6049 120.935 69.6049 120.835C69.6049 120.835 69.6049 120.835 69.6049 120.736C69.5036 120.636 69.4023 120.537 69.301 120.437C69.1996 120.337 69.0983 120.337 68.8957 120.337V118.146H73.2523V120.337H73.151Z" fill="white"/>
<path d="M5.16718 82.6824V73.2188H8.40932V74.4141H6.58562V77.2034H8.20669V78.3988H6.58562V81.3873H8.40932V82.6824H5.16718Z" fill="white"/>
<path d="M9.42249 80.0918V79.2949H10.8409V80.2911C10.8409 80.7891 10.8409 81.1876 10.9422 81.3868C11.0436 81.5861 11.2462 81.6857 11.4488 81.6857C11.6515 81.6857 11.8541 81.5861 11.9554 81.3868C12.0567 81.1876 12.0567 80.8888 12.0567 80.4903C12.0567 80.0918 11.9554 79.793 11.8541 79.4941C11.7528 79.1953 11.4488 78.8964 11.1449 78.5976L10.4357 77.9003C10.1317 77.5018 9.82775 77.1033 9.72644 76.7049C9.5238 76.3064 9.42249 75.9079 9.42249 75.4098C9.42249 74.6129 9.62512 74.0152 9.92907 73.7164C10.233 73.3179 10.7396 73.1187 11.5501 73.1187C12.2594 73.1187 12.766 73.3179 13.0699 73.816C13.3739 74.2144 13.4752 74.9118 13.4752 75.7087V76.3064H12.158V75.7087C12.158 75.2106 12.158 74.9118 12.0567 74.7125C11.9554 74.5133 11.8541 74.4137 11.5501 74.4137C11.3475 74.4137 11.1449 74.5133 11.0436 74.6129C10.9422 74.8121 10.9422 75.0114 10.9422 75.3102C10.9422 75.6091 10.9422 75.8083 11.1449 76.0075C11.2462 76.2068 11.4488 76.406 11.6515 76.7049L12.462 77.5018C12.8673 77.9003 13.1712 78.3983 13.3739 78.7968C13.5765 79.1953 13.6778 79.6934 13.6778 80.1914C13.6778 81.088 13.5765 81.6857 13.2725 82.1838C12.9686 82.5823 12.462 82.7815 11.6515 82.7815C10.9422 82.7815 10.3343 82.5823 10.0304 82.0842C9.5238 81.6857 9.42249 80.9884 9.42249 80.0918Z" fill="white"/>
<path d="M14.9949 82.6819V74.5133H13.8804V73.3179H17.5278V74.5133H16.4134V82.6819H14.9949Z" fill="white"/>
<path d="M18.3384 82.6819V73.2183H20.466C21.1753 73.2183 21.6818 73.4175 21.9858 73.816C22.2897 74.2144 22.4924 74.8121 22.4924 75.6091V79.8926C22.4924 80.8888 22.2897 81.5861 21.9858 81.9846C21.6818 82.383 21.1753 82.6819 20.3647 82.6819H18.3384ZM19.8581 81.5861H20.2634C20.5674 81.5861 20.77 81.4865 20.8713 81.2872C20.9726 81.088 21.0739 80.7891 21.0739 80.3907V75.7087C21.0739 75.2106 20.9726 74.9117 20.8713 74.7125C20.77 74.5133 20.5674 74.4137 20.2634 74.4137H19.8581V81.5861Z" fill="white"/>
<path d="M80.2432 82.6819V75.0114C80.1419 75.111 79.9393 75.3102 79.7366 75.3102C79.534 75.4098 79.3314 75.4098 79.0274 75.4098V74.3141C79.3314 74.3141 79.6353 74.1148 79.9393 73.9156C80.2432 73.7163 80.4458 73.4175 80.5472 73.1187H81.6616V82.6819H80.2432Z" fill="white"/>
<path d="M86.5249 82.1838C86.2209 82.5822 85.7143 82.8811 85.0051 82.8811C84.2959 82.8811 83.7893 82.6819 83.4853 82.2834C83.1814 81.8849 82.9788 81.2872 82.9788 80.4903V79.9922H84.3972V80.1914C84.3972 80.7891 84.3972 81.1876 84.4985 81.3868C84.5998 81.5861 84.7011 81.6857 84.9038 81.6857C85.1064 81.6857 85.2077 81.6857 85.309 81.5861C85.309 81.4865 85.4104 81.3868 85.4104 81.2872C85.4104 81.1876 85.4104 80.8888 85.4104 80.4903V79.0957C85.2077 79.1953 84.9038 79.2949 84.4985 79.2949C83.8906 79.2949 83.384 79.0957 83.0801 78.5976C82.7761 78.0995 82.6748 77.4022 82.6748 76.5056V76.2068C82.6748 75.0114 82.8774 74.2144 83.2827 73.816C83.5867 73.5171 84.0932 73.3179 84.7011 73.3179C85.309 73.3179 85.8156 73.4175 86.0183 73.7163C86.3222 73.9156 86.5249 74.314 86.6262 74.7125C86.7275 75.111 86.7275 75.7087 86.7275 76.3064V80.0918C86.9301 80.8888 86.8288 81.6857 86.5249 82.1838ZM84.9038 77.9999C85.3091 77.9999 85.5117 77.8006 85.5117 77.5018V75.7087C85.5117 75.2106 85.5117 74.9117 85.4104 74.7125C85.3091 74.5133 85.2077 74.4137 84.9038 74.4137C84.7011 74.4137 84.4985 74.5133 84.3972 74.7125C84.2959 74.9117 84.2959 75.2106 84.2959 75.7087V76.5056C84.2959 77.0037 84.2959 77.4022 84.3972 77.6014C84.4985 77.9003 84.7011 77.9999 84.9038 77.9999Z" fill="white"/>
<path d="M90.2736 82.7815C88.9565 82.7815 88.3486 82.1838 88.3486 80.8888V79.6934H89.6657V80.6895C89.6657 81.088 89.767 81.3869 89.9697 81.4865C90.071 81.4865 90.1723 81.5861 90.2736 81.5861C90.5775 81.5861 90.7802 81.2872 90.7802 80.6895V78.2987C90.7802 77.9999 90.7802 77.701 90.6789 77.5018C90.5776 77.3026 90.4762 77.2029 90.2736 77.2029C89.8683 77.2029 89.6657 77.5018 89.6657 78.0995L88.3486 77.9999V73.2183H91.8947V74.5133H89.6657V76.406C89.767 76.3064 89.8683 76.2068 90.071 76.1072C90.2736 76.0075 90.4762 76.0075 90.6789 76.0075C91.2868 76.0075 91.5907 76.2068 91.8947 76.7049C92.0973 77.2029 92.1986 77.9999 92.1986 78.996C92.1986 80.0918 92.1986 80.7891 92.0973 81.1876C91.996 81.5861 91.8947 81.8849 91.7934 82.0842C91.4894 82.5823 90.9828 82.7815 90.2736 82.7815Z" fill="white"/>
<path d="M94.225 82.6819V75.0114C94.1236 75.111 93.921 75.3102 93.7184 75.3102C93.5157 75.4098 93.3131 75.4098 93.0092 75.4098V74.3141C93.3131 74.3141 93.6171 74.1148 93.921 73.9156C94.225 73.7163 94.4276 73.4175 94.5289 73.1187H95.6434V82.6819H94.225Z" fill="white"/>
<path d="M74.6708 8.56704C72.7457 7.67049 70.5168 8.46743 69.7062 10.4598C68.997 12.2529 69.5036 14.2452 71.0233 15.341L60.385 32.8736C59.8785 32.4751 59.3719 32.1762 58.8653 31.8774L61.0943 10.4598C61.2969 10.4598 61.4995 10.4598 61.6008 10.4598C63.4246 10.3601 64.9443 8.96551 65.2483 6.97317C65.4509 4.7816 63.9311 2.88888 61.9048 2.59003C61.6008 2.59003 61.3982 2.59003 61.0943 2.59003C59.2706 2.68965 57.6495 4.08428 57.4468 6.07662C57.2442 7.96934 58.46 9.76245 60.0811 10.2605L54.7113 29.7854C54.4073 29.6858 54.1034 29.5862 53.7994 29.5862C53.6981 29.5862 53.6981 29.5862 53.5968 29.4866C53.3942 29.387 53.1915 29.387 52.8876 29.387C52.6849 29.387 52.5836 29.2874 52.381 29.2874L50.3546 7.86973H50.456C52.1784 7.67049 53.5968 6.27586 53.7994 4.38313C54.0021 2.19156 52.4823 0.298843 50.456 0.0996094C50.3546 0.0996094 50.152 0.0996094 50.0507 0.0996094C49.9494 0.0996094 49.7467 0.0996094 49.6454 0.0996094C47.6191 0.298843 46.0993 2.29118 46.302 4.38313C46.5046 6.27586 47.923 7.67049 49.6454 7.86973H49.7467L47.6191 29.2874C47.4164 29.2874 47.3151 29.387 47.1125 29.387C46.9099 29.387 46.7072 29.4866 46.4033 29.4866C46.302 29.4866 46.302 29.4866 46.2006 29.5862C45.8967 29.6858 45.5927 29.6858 45.2888 29.7854L39.8177 10.2605C41.5401 9.76245 42.7559 7.96934 42.5532 6.07662C42.3506 4.08428 40.8308 2.68965 38.9058 2.59003C38.6019 2.59003 38.3992 2.59003 38.0953 2.59003C36.0689 2.78926 34.5492 4.7816 34.7518 6.97317C34.9544 8.96551 36.4742 10.4598 38.3992 10.4598C38.6019 10.4598 38.7032 10.4598 38.9058 10.4598L41.1348 31.8774C40.6282 32.1762 40.1216 32.4751 39.615 32.8736L28.9767 15.341C30.3952 14.2452 31.0031 12.1532 30.2939 10.4598C29.4833 8.46743 27.2543 7.67049 25.3293 8.56704C23.4043 9.46359 22.5938 11.8544 23.4043 13.8467C24.2148 15.8391 26.4438 16.636 28.3688 15.7395L36.7781 35.2644C36.3729 35.7625 36.0689 36.2605 35.6637 36.7586C37.7913 38.4521 38.8045 39.3487 38.8045 39.3487C39.7163 37.954 44.8835 36.659 49.9494 36.3601C54.9139 36.659 60.1824 37.954 61.0943 39.3487C61.0943 39.3487 62.1074 38.4521 64.2351 36.7586C63.9311 36.2605 63.5259 35.7625 63.1206 35.2644L71.5299 15.7395C73.455 16.7356 75.5826 15.8391 76.4945 13.8467C77.4063 11.8544 76.5958 9.46359 74.6708 8.56704Z" fill="white"/>
<path d="M92.1986 38.6515C90.9828 39.548 89.767 40.7434 88.2472 42.3373C87.842 42.7358 87.4367 43.2339 87.1327 43.6323C85.7143 45.2262 84.4985 46.4216 83.384 47.0193L79.6353 42.2377L58.5613 58.276L54.5086 61.3641L9.3212 95.7319L13.0699 100.514C12.1581 101.31 10.841 102.008 9.21988 102.805C8.7133 103.104 8.20671 103.303 7.70012 103.602C5.7751 104.598 4.25534 105.494 3.14085 106.391C-0.709196 109.28 -0.303928 111.571 0.810561 112.966C1.11451 113.364 1.82373 114.261 3.14085 114.36C4.45798 114.46 5.87642 113.862 7.70012 112.567C8.91593 111.671 10.2331 110.376 11.7528 108.782C12.462 107.985 13.0699 107.287 13.5765 106.69C14.2857 105.793 14.995 104.996 15.6029 104.498C15.7042 104.399 15.8055 104.299 15.9068 104.299L19.8582 109.28L65.0456 74.912L69.0983 71.8239L90.1723 55.686L86.3222 50.8047C86.5248 50.5059 86.7275 50.3067 87.0314 50.0078C87.6393 49.5097 88.6525 49.1113 89.6657 48.6132C90.4762 48.3143 91.2868 47.9158 92.1986 47.4178C94.1236 46.4216 95.7447 45.4254 96.9605 44.5289C98.7842 43.1342 99.6961 41.8392 99.8987 40.6438C100.101 39.3488 99.3921 38.5519 99.0882 38.1534C98.1763 36.7588 96.0487 35.7626 92.1986 38.6515ZM11.5502 104.996C11.0436 105.694 10.4357 106.291 9.82778 106.989C8.40934 108.483 7.19354 109.678 6.07905 110.475C4.35666 111.77 3.64744 111.87 3.34349 111.77C3.14085 111.77 3.03954 111.671 2.8369 111.372C2.229 110.575 3.54612 109.28 4.66061 108.383C5.67378 107.586 7.09222 106.69 8.91593 105.793C9.42252 105.494 9.9291 105.295 10.4357 104.996C11.0436 104.697 11.7528 104.399 12.2594 104C12.0568 104.399 11.7528 104.697 11.5502 104.996ZM86.6262 55.2875L67.5785 69.7319L63.5259 72.8201L20.2634 105.594L19.6555 104.797L62.8166 72.0231L66.8693 68.935L85.9169 54.4906L86.6262 55.2875ZM84.3972 52.4982L65.3496 66.9427L61.2969 70.0308L18.1358 102.805L12.8673 96.1304L56.0284 63.3565L60.0811 60.2683L79.1287 45.8239L84.3972 52.4982ZM97.4671 40.2454C97.4671 40.5442 97.1631 41.2415 95.4408 42.5365C94.3263 43.3335 92.9078 44.23 91.0841 45.2262C90.2736 45.6247 89.463 46.0231 88.6525 46.4216C88.2472 46.6208 87.9433 46.7204 87.6393 46.9197C88.1459 46.4216 88.5512 45.9235 89.0578 45.4254C89.463 45.027 89.767 44.6285 90.1723 44.1304C91.4894 42.7358 92.7052 41.5404 93.7184 40.7434C94.9342 39.8469 96.5552 38.8507 97.1631 39.7473C97.4671 39.9465 97.4671 40.0461 97.4671 40.2454Z" fill="white"/>
<path d="M96.9605 106.391C95.7447 105.494 94.225 104.598 92.4013 103.602C91.8947 103.303 91.3881 103.103 90.8815 102.805C89.2604 102.008 87.9433 101.31 87.0315 100.513L90.7802 95.7318L63.3233 74.8123C62.614 75.41 62.0061 75.908 61.2969 76.4061L87.1328 96.1303L81.8643 102.805L54.2047 81.8851C53.4955 82.3831 52.8876 82.9808 52.2797 83.4789L80.3445 104.797L79.7366 105.594L51.4692 84.1762C50.9626 84.5747 50.456 85.0728 49.9494 85.5709C49.8481 85.6705 49.6454 85.7701 49.5441 85.9693L80.1419 109.28L84.0933 104.299C84.1946 104.398 84.2959 104.398 84.3972 104.498C85.0051 104.996 85.7143 105.793 86.4236 106.69C86.9301 107.387 87.538 108.084 88.2473 108.782C89.767 110.375 91.0841 111.67 92.2999 112.567C94.1237 113.962 95.6434 114.559 96.8592 114.36C98.1763 114.261 98.7842 113.364 99.1895 112.966C100.405 111.571 100.811 109.28 96.9605 106.391ZM97.2645 111.372C97.0619 111.67 96.9605 111.77 96.7579 111.77C96.454 111.77 95.7447 111.77 94.0223 110.475C92.9079 109.678 91.692 108.483 90.2736 106.989C89.6657 106.291 89.0578 105.594 88.5512 104.996C88.3486 104.697 88.0446 104.398 87.842 104.1C88.4499 104.398 89.0578 104.697 89.6657 105.096C90.1723 105.295 90.6789 105.594 91.1855 105.893C92.9079 106.789 94.3263 107.686 95.4408 108.483C96.5553 109.28 97.8724 110.575 97.2645 111.372Z" fill="white"/>
<path d="M36.6765 76.0077C36.9805 75.8085 37.1831 75.5096 37.487 75.3104C37.8923 75.0115 38.2976 74.7127 38.7029 74.4138L36.4739 72.7203L32.4212 69.6322L13.4749 55.2874L14.0828 54.4904L33.1304 68.9349L37.1831 72.023L39.6147 73.9157C40.3239 73.4176 41.0331 72.9196 41.7424 72.4215L38.7029 70.1303L34.6502 67.0422L15.6025 52.4981L20.871 45.8238L39.9187 60.2682L43.9713 63.3563L49.0372 67.2414C49.8477 66.7433 50.557 66.3448 51.3675 65.8468L45.5924 61.364L41.5397 58.2759L20.4658 42.2376L16.717 47.0192C15.6025 46.4215 14.3867 45.2261 12.9683 43.6322C12.563 43.2337 12.1578 42.7356 11.8538 42.3372C10.4354 40.8429 9.11825 39.5479 7.90244 38.6514C4.05239 35.7625 1.92473 36.7586 0.911562 38.0537C0.607611 38.4521 -0.101609 39.3487 0.101025 40.5441C0.202342 41.8391 1.21551 43.1341 3.03922 44.5288C4.25503 45.4253 5.77478 46.4215 7.80113 47.4176C8.71298 47.9157 9.62484 48.3142 10.3341 48.613C11.4485 49.1111 12.3604 49.5096 13.0696 50.0077C13.3736 50.2069 13.5762 50.5058 13.7788 50.8046L9.92879 55.6858L30.9014 71.7242L34.9541 74.8123L36.6765 76.0077ZM11.3472 46.3219C10.5367 46.023 9.72615 45.6245 8.91562 45.1265C7.09191 44.1303 5.57215 43.2337 4.55898 42.4368C2.83659 41.1418 2.63395 40.4445 2.53264 40.1456C2.53264 39.9464 2.53264 39.8468 2.83659 39.5479C3.44449 38.751 5.06556 39.6475 6.28137 40.5441C7.29454 41.341 8.51035 42.4368 9.82747 43.931C10.2327 44.3295 10.638 44.8276 10.942 45.2261C11.4485 45.7242 11.8538 46.3219 12.3604 46.7203C12.0564 46.7203 11.7525 46.5211 11.3472 46.3219Z" fill="white"/>
</g>
</symbol>

</svg>
